<svg width="269" height="35" viewBox="0 0 269 35" fill="none" xmlns="http://www.w3.org/2000/svg">
<path d="M268.14 15.699C267.691 14.2896 266.793 13.3109 265.503 13.3109C264.82 13.3109 264.233 13.6828 264.233 14.3484C264.233 16.0905 269 15.5424 269 18.694C269 20.2404 267.828 21.2583 265.972 21.2583C264.624 21.2583 264.019 20.8471 263.726 20.8471C263.413 20.8471 263.237 20.9842 263.061 21.2583H262.846V18.3612H263.12C263.589 20.025 264.683 20.8471 265.914 20.8471C267.008 20.8471 267.457 20.2599 267.457 19.6531C267.457 19.105 267.027 18.3612 265.191 17.7935C263.823 17.3628 262.827 16.4037 262.827 15.2292C262.827 13.7415 264.077 12.8998 265.542 12.8998C266.675 12.8998 267.261 13.3109 267.554 13.3109C267.75 13.3109 268.004 13.1347 268.121 12.8998H268.394V15.699H268.121H268.14ZM254.661 14.1526C254.661 13.5849 254.485 13.5262 253.665 13.5262V13.1151H260.659L261.44 15.2879H261.108C259.975 14.0155 259.135 13.5262 257.357 13.5262C256.771 13.5262 256.634 13.5849 256.634 14.0352V16.7169H257.162C258.627 16.7169 259.154 16.2862 259.467 15.1117H259.799V18.6352H259.467C259.233 17.4999 258.588 17.1279 257.162 17.1279H256.634V20.1425C256.634 20.4753 256.771 20.6123 257.826 20.6123C259.428 20.6123 260.326 20.2012 261.205 18.7135H261.577L260.952 21.0234H253.645V20.6123C254.466 20.6123 254.642 20.5536 254.642 19.9859V14.1526H254.661ZM252.219 18.3024V21.2583H251.946C251.809 20.9059 251.614 20.7102 251.34 20.7102C250.989 20.7102 249.953 21.2583 248.508 21.2583C245.948 21.2583 244.151 19.4182 244.151 17.2259C244.151 14.779 245.909 12.8998 248.723 12.8998C249.895 12.8998 250.871 13.3109 251.34 13.3109C251.555 13.3109 251.809 13.1934 251.946 12.9781H252.219V15.4641H251.887C251.262 14.27 250.363 13.3109 248.918 13.3109C247.375 13.3109 246.3 14.4658 246.3 17.0692C246.3 19.9076 247.648 20.8276 248.84 20.8276C250.149 20.8276 251.204 19.7314 251.887 18.3024H252.219ZM241.846 14.6028C241.846 13.6632 241.299 13.5262 240.576 13.5262V13.1151H243.448V13.5262C242.921 13.5262 242.393 13.6436 242.393 14.6224V21.2583H241.924L235.751 14.2504V19.4769C235.751 20.4165 236.044 20.6123 236.943 20.6123V21.0234H234.071V20.6123C234.852 20.6123 235.185 20.4557 235.185 18.8701V14.4462C235.185 13.6436 235.048 13.5262 234.11 13.5262V13.1151H237.197L241.807 18.4199V14.6028H241.846ZM226.198 14.1526C226.198 13.5849 226.023 13.5262 225.202 13.5262V13.1151H232.196L232.977 15.2879H232.645C231.512 14.0155 230.672 13.5262 228.894 13.5262C228.308 13.5262 228.171 13.5849 228.171 14.0352V16.7169H228.699C230.164 16.7169 230.691 16.2862 231.004 15.1117H231.336V18.6352H231.004C230.77 17.4999 230.125 17.1279 228.699 17.1279H228.171V20.1425C228.171 20.4753 228.308 20.6123 229.363 20.6123C230.965 20.6123 231.864 20.2012 232.743 18.7135H233.114L232.489 21.0234H225.183V20.6123C226.003 20.6123 226.179 20.5536 226.179 19.9859V14.1526H226.198ZM218.15 20.1621C218.15 20.4165 218.208 20.6319 219.263 20.6319C221.51 20.6319 222.35 18.7526 222.35 17.2454C222.35 14.5245 220.846 13.5262 219.166 13.5262C218.287 13.5262 218.169 13.7415 218.169 14.2113V20.1621H218.15ZM216.177 14.1526C216.177 13.5849 216.001 13.5262 215.18 13.5262V13.1151H219.595C222.311 13.1151 224.499 14.6028 224.499 17.0888C224.499 19.1246 222.643 21.0625 219.908 21.0625H215.18V20.6514C216.001 20.6514 216.177 20.5927 216.177 20.025V14.1917V14.1526ZM210.805 14.1526C210.805 13.5849 210.629 13.5262 209.808 13.5262V13.1151H213.774V13.5262C212.954 13.5262 212.778 13.5849 212.778 14.1526V19.9859C212.778 20.5536 212.954 20.6123 213.774 20.6123V21.0234H209.808V20.6123C210.629 20.6123 210.805 20.5536 210.805 19.9859V14.1526ZM207.464 15.699C207.015 14.2896 206.116 13.3109 204.827 13.3109C204.143 13.3109 203.557 13.6828 203.557 14.3484C203.557 16.0905 208.324 15.5424 208.324 18.694C208.324 20.2404 207.152 21.2583 205.296 21.2583C203.948 21.2583 203.342 20.8471 203.049 20.8471C202.737 20.8471 202.561 20.9842 202.385 21.2583H202.17V18.3612H202.444C202.912 20.025 204.006 20.8471 205.237 20.8471C206.331 20.8471 206.78 20.2599 206.78 19.6531C206.78 19.105 206.351 18.3612 204.514 17.7935C203.147 17.3628 202.151 16.4037 202.151 15.2292C202.151 13.7415 203.401 12.8998 204.866 12.8998C205.999 12.8998 206.585 13.3109 206.878 13.3109C207.073 13.3109 207.327 13.1347 207.445 12.8998H207.718V15.699H207.445H207.464ZM193.965 14.1526C193.965 13.5849 193.789 13.5262 192.969 13.5262V13.1151H199.963L200.744 15.2879H200.412C199.279 14.0155 198.439 13.5262 196.661 13.5262C196.075 13.5262 195.938 13.5849 195.938 14.0352V16.7169H196.466C197.931 16.7169 198.458 16.2862 198.771 15.1117H199.103V18.6352H198.771C198.536 17.4999 197.892 17.1279 196.466 17.1279H195.938V20.1425C195.938 20.4753 196.075 20.6123 197.13 20.6123C198.732 20.6123 199.63 20.2012 200.51 18.7135H200.881L200.256 21.0234H192.949V20.6123C193.77 20.6123 193.946 20.5536 193.946 19.9859V14.1526H193.965ZM186.249 16.8343H186.933C187.87 16.8343 188.71 16.4037 188.71 15.1901C188.71 14.4854 188.32 13.5262 186.679 13.5262H186.229V16.8343H186.249ZM184.276 14.1526C184.276 13.5849 184.1 13.5262 183.279 13.5262V13.1151H187.245C189.804 13.1151 190.703 14.3092 190.703 15.3271C190.703 16.345 189.941 16.9714 188.652 17.0497V17.0888C189.062 17.0888 189.355 17.2845 189.687 17.7935L190.996 19.8293C191.465 20.5927 191.699 20.6319 192.168 20.6319V21.0429H189.433L187.577 17.7348C187.362 17.3433 187.069 17.2259 186.229 17.2259V20.0054C186.229 20.5731 186.405 20.6319 187.226 20.6319V21.0429H183.26V20.6319C184.08 20.6319 184.256 20.5731 184.256 20.0054V14.1722L184.276 14.1526ZM107.405 17.6369H110.061L111.175 16.0318H108.518L107.405 17.6369ZM42.2547 19.9859C42.2547 20.5536 42.0789 20.6123 41.2584 20.6123V21.0234H45.2436V20.6123C44.4231 20.6123 44.2473 20.5536 44.2473 19.9859V13.8785C44.2473 13.5849 44.3841 13.4675 44.6576 13.4675C45.3413 13.4675 46.4939 14.0939 47.1581 15.3271L47.4706 15.2097L47.0017 12.8802H46.6697C46.4548 12.9977 46.1618 13.0955 45.8883 13.0955H40.6333C40.4966 13.0955 40.3598 13.0955 40.223 13.0368C40.0863 12.9977 39.9691 12.939 39.8518 12.8802H39.5198L39.051 15.2097L39.3635 15.3271C40.0277 14.0939 41.1803 13.4675 41.864 13.4675C42.1375 13.4675 42.2743 13.5849 42.2743 13.8785V19.9859H42.2547ZM55.2652 19.9859C55.2652 20.5536 55.0893 20.6123 54.2689 20.6123V21.0234H58.2541V20.6123C57.4336 20.6123 57.2577 20.5536 57.2577 19.9859V14.133C57.2577 13.5653 57.4336 13.5066 58.2541 13.5066V13.0955H54.2689V13.5066C55.0893 13.5066 55.2652 13.5653 55.2652 14.133V16.5603H51.2214V14.133C51.2214 13.5653 51.3972 13.5066 52.2177 13.5066V13.0955H48.2325V13.5066C49.053 13.5066 49.2288 13.5653 49.2288 14.133V19.9859C49.2288 20.5536 49.053 20.6123 48.2325 20.6123V21.0234H52.2177V20.6123C51.3972 20.6123 51.2214 20.5536 51.2214 19.9859V17.1279H55.2652V19.9859ZM60.5006 19.9859C60.5006 20.5536 60.3248 20.6123 59.5043 20.6123V21.0234H66.83L67.4551 18.7135H67.084C66.1853 20.2012 65.2867 20.6123 63.6848 20.6123C62.6299 20.6123 62.4737 20.4557 62.4737 20.1425V17.1279H63.0011C64.4272 17.1279 65.0914 17.5195 65.3063 18.6352H65.6384V15.0922H65.3063C64.9742 16.2667 64.4662 16.6973 63.0011 16.6973H62.4737V14.0156C62.4737 13.5653 62.6104 13.5066 63.1965 13.5066C64.9937 13.5066 65.8337 13.996 66.9667 15.2684H67.2989L66.5175 13.0955H59.5043V13.5066C60.3248 13.5066 60.5006 13.5653 60.5006 14.133V19.9859ZM76.793 16.8343H76.0897V13.5066H76.5391C78.18 13.5066 78.5707 14.4658 78.5707 15.1705C78.5707 16.3841 77.7307 16.8343 76.7735 16.8343H76.793ZM80.8563 19.8097L79.5474 17.7739C79.2153 17.265 78.9223 17.0692 78.5121 17.0692V17.0301C79.8014 16.9518 80.5633 16.2862 80.5633 15.3075C80.5633 14.3288 79.6646 13.0955 77.1055 13.0955H73.1204V13.5066C73.9409 13.5066 74.1166 13.5653 74.1166 14.133V19.9859C74.1166 20.5536 73.9409 20.6123 73.1204 20.6123V21.0234H77.1055V20.6123C76.2851 20.6123 76.1093 20.5536 76.1093 19.9859V17.2063C76.9493 17.2063 77.2423 17.3237 77.4572 17.7152L79.313 21.0429H82.0479V20.6319C81.5791 20.6319 81.3447 20.5927 80.8758 19.8293L80.8563 19.8097ZM84.0796 19.9859C84.0796 20.5536 83.9038 20.6123 83.0833 20.6123V21.0234H87.0685V20.6123C86.248 20.6123 86.0722 20.5536 86.0722 19.9859V14.133C86.0722 13.5653 86.248 13.5066 87.0685 13.5066V13.0955H83.0833V13.5066C83.9038 13.5066 84.0796 13.5653 84.0796 14.133V19.9859ZM91.0537 19.9859C91.0537 20.5536 90.8583 20.6123 90.0574 20.6123V21.0234H94.0426V20.6123C93.2221 20.6123 93.0463 20.5536 93.0463 19.9859V13.8785C93.0463 13.5849 93.183 13.4675 93.4565 13.4675C94.1402 13.4675 95.2928 14.0939 95.957 15.3271L96.2696 15.2097L95.8008 12.8802H95.4686C95.2537 12.9977 94.9607 13.0955 94.6872 13.0955H89.4323C89.2955 13.0955 89.1588 13.0955 89.022 13.0368C88.8853 12.9977 88.7681 12.939 88.6509 12.8802H88.3188L87.8304 15.2097L88.1429 15.3271C88.8071 14.0939 89.9597 13.4675 90.6434 13.4675C90.9169 13.4675 91.0537 13.5849 91.0537 13.8785V19.9859ZM97.0119 21.0429H103.927L104.767 18.6548H104.435C103.283 20.2012 102.56 20.671 101.427 20.671H99.4929L104.513 13.3109V13.0955H97.7152L96.9729 15.3271H97.2463C98.1645 14.1135 99.1217 13.5262 100.177 13.5262H101.993L97.0315 20.7689V21.0429H97.0119ZM121.255 18.3024C120.552 19.7314 119.517 20.8471 118.208 20.8471C116.996 20.8471 115.668 19.9271 115.668 17.0692C115.668 14.4658 116.743 13.2913 118.286 13.2913C119.731 13.2913 120.63 14.27 121.255 15.4641H121.587V12.9781H121.314C121.197 13.1738 120.923 13.3109 120.708 13.3109C120.239 13.3109 119.263 12.8998 118.09 12.8998C115.258 12.8998 113.5 14.779 113.5 17.2259C113.5 19.4378 115.297 21.2778 117.876 21.2778C119.321 21.2778 120.357 20.7297 120.708 20.7297C120.982 20.7297 121.177 20.9059 121.314 21.2778H121.587V18.322H121.255V18.3024ZM125.104 18.5373L126.686 15.1901L128.327 18.5373H125.123H125.104ZM131.081 19.751L127.741 13.2913C127.604 13.0368 127.546 12.9585 127.487 12.9585C127.389 12.9585 127.116 13.5849 126.139 14.2504C126.276 14.3092 126.393 14.4658 126.393 14.6028C126.393 14.7007 126.393 14.779 126.276 14.9943L124.264 19.1833C123.756 20.2599 123.443 20.6123 122.681 20.6123V21.0234H125.553V20.6123C124.791 20.6123 124.478 20.397 124.478 20.0838C124.478 19.9076 124.576 19.5944 124.947 18.9876H128.561C129.05 19.751 129.147 20.1425 129.147 20.2795C129.147 20.534 128.893 20.6123 128.073 20.6123V21.0234H132.371V20.6123C131.667 20.6123 131.472 20.4557 131.101 19.751H131.081ZM136.961 16.8343H136.258V13.5066H136.708C138.348 13.5066 138.739 14.4658 138.739 15.1705C138.739 16.3841 137.899 16.8343 136.942 16.8343H136.961ZM141.025 19.8097L139.716 17.7739C139.384 17.265 139.091 17.0692 138.681 17.0692V17.0301C139.97 16.9518 140.732 16.2862 140.732 15.3075C140.732 14.3288 139.833 13.0955 137.274 13.0955H133.289V13.5066C134.109 13.5066 134.285 13.5653 134.285 14.133V19.9859C134.285 20.5536 134.09 20.6123 133.289 20.6123V21.0234H137.274V20.6123C136.454 20.6123 136.278 20.5536 136.278 19.9859V17.2063C137.118 17.2063 137.411 17.3237 137.626 17.7152L139.481 21.0429H142.216V20.6319C141.748 20.6319 141.513 20.5927 141.044 19.8293L141.025 19.8097ZM143.896 19.9859C143.896 20.5536 143.701 20.6123 142.9 20.6123V21.0234H150.402L151.007 18.7135H150.636C149.542 20.3186 148.839 20.6123 146.924 20.6123C146.045 20.6123 145.87 20.4557 145.87 20.0642V14.133C145.87 13.5653 146.065 13.5066 146.866 13.5066V13.0955H142.881V13.5066C143.701 13.5066 143.877 13.5653 143.877 14.133V19.9859H143.896ZM153.254 19.9859C153.254 20.5536 153.078 20.6123 152.258 20.6123V21.0234H156.243V20.6123C155.422 20.6123 155.246 20.5536 155.246 19.9859V13.8785C155.246 13.5849 155.383 13.4675 155.657 13.4675C156.34 13.4675 157.493 14.0939 158.157 15.3271L158.47 15.2097L158.001 12.8802H157.669C157.454 12.9977 157.161 13.0955 156.887 13.0955H151.632C151.496 13.0955 151.359 13.0955 151.222 13.0368C151.085 12.9977 150.968 12.939 150.851 12.8802H150.519L150.031 15.2097L150.343 15.3271C151.007 14.0939 152.16 13.4675 152.844 13.4675C153.117 13.4675 153.254 13.5849 153.254 13.8785V19.9859ZM163.51 20.8863C162.025 20.8863 161.341 19.5552 161.341 17.0692C161.341 14.5832 162.025 13.2522 163.51 13.2522C164.995 13.2522 165.678 14.5832 165.678 17.0692C165.678 19.5552 164.995 20.8863 163.51 20.8863ZM163.51 12.8802C161.381 12.8802 159.193 14.27 159.193 17.0692C159.193 19.8684 161.381 21.2583 163.51 21.2583C165.639 21.2583 167.827 19.8684 167.827 17.0692C167.827 14.27 165.639 12.8802 163.51 12.8802ZM176.266 18.4199L171.637 13.0955H168.53V13.5066C169.468 13.5066 169.605 13.624 169.605 14.4266V18.8701C169.605 20.4557 169.273 20.6123 168.491 20.6123V21.0234H171.363V20.6123C170.445 20.6123 170.152 20.4165 170.152 19.4769V14.2309L176.345 21.2583H176.813V14.6028C176.813 13.6045 177.341 13.5066 177.868 13.5066V13.0955H174.997V13.5066C175.719 13.5066 176.266 13.6437 176.266 14.5832V18.4003V18.4199ZM11.4281 32.8857C7.11083 32.8857 4.23917 32.827 4.23917 32.827L3.63358 30.4976C3.63358 30.4976 7.56014 29.9495 11.4281 29.9495C15.2961 29.9495 19.2227 30.4976 19.2227 30.4976L18.6171 32.827C18.6171 32.827 15.7454 32.8857 11.4281 32.8857ZM22.4265 24.1358L22.2701 24.077C22.0553 24.4098 21.2739 25.134 20.1213 25.134L20.0627 25.2515C20.5511 25.7408 20.4534 26.8566 19.8478 26.8566C19.4571 26.8566 19.3008 26.5239 19.2422 26.2498L19.125 26.1911C18.9687 26.3085 18.5194 26.6413 18.4022 26.7392C18.4022 27.0719 18.4608 27.5222 18.5194 27.7962H18.6366C18.7538 27.5809 18.9687 27.5222 19.086 27.5222C19.3594 27.5222 19.5743 27.7375 19.5743 28.0702C19.5743 28.6183 19.1836 29.1273 18.4218 29.1273C17.6013 29.1273 16.8785 28.7358 16.8785 27.855C16.8785 27.4047 17.0933 26.9154 17.6989 26.6413V26.5239C17.2496 26.1911 16.8785 25.643 16.7613 25.369H16.644C16.4878 25.5843 15.9212 26.0932 15.4328 26.1911V26.3085C15.8821 26.7587 15.9212 27.1894 15.9212 27.4634C15.9212 28.1877 15.3156 28.6183 14.0458 28.6183C13.1081 28.6183 12.1705 28.3443 12.1705 27.4047C12.1705 26.9153 12.5026 26.6217 12.8933 26.6217C13.1668 26.6217 13.4989 26.7392 13.7138 27.072H13.831C14.0459 26.7979 14.1631 26.6218 14.5538 26.289V26.1715C14.3975 26.054 14.1045 25.7213 13.831 25.3494H13.7138C13.3231 25.7996 13.0495 25.8388 12.7175 25.8388C12.5026 25.8388 12.1705 25.7213 12.1705 25.3494C12.1705 24.86 12.7761 24.6251 13.284 24.4685V24.351C12.4635 24.0183 11.6821 23.1374 11.5063 22.5697H11.3891C11.2328 23.1178 10.4514 24.0183 9.61136 24.351V24.4685C10.0997 24.6251 10.7249 24.86 10.7249 25.3494C10.7249 25.7409 10.3928 25.8388 10.1779 25.8388C9.8458 25.8388 9.57228 25.78 9.18158 25.3494H9.06437C8.79088 25.7409 8.5174 26.0736 8.34158 26.1715V26.289C8.73228 26.6218 8.82995 26.7784 9.06437 27.072H9.18158C9.39647 26.7392 9.72853 26.6217 10.002 26.6217C10.3927 26.6217 10.7249 26.8958 10.7249 27.4047C10.7249 28.3443 9.78714 28.6183 8.84945 28.6183C7.57966 28.6183 6.97409 28.1681 6.97409 27.4634C6.97409 27.1894 7.0327 26.7392 7.46247 26.3085V26.1911C6.97409 26.0736 6.40758 25.5843 6.2513 25.369H6.13409C6.01688 25.643 5.64569 26.1911 5.19638 26.5239V26.6413C5.80197 26.9154 6.01688 27.4243 6.01688 27.855C6.01688 28.7358 5.29406 29.1273 4.47358 29.1273C3.69217 29.1273 3.32101 28.6379 3.32101 28.0702C3.32101 27.7375 3.5359 27.5222 3.80939 27.5222C3.9266 27.5222 4.14151 27.5809 4.25872 27.7962H4.37593C4.43454 27.5222 4.49314 27.0719 4.49314 26.7392C4.37593 26.6217 3.94616 26.289 3.77034 26.1911L3.65308 26.2498C3.59447 26.5239 3.43819 26.8566 3.04749 26.8566C2.4419 26.8566 2.32472 25.7408 2.83263 25.2515L2.77403 25.134C1.62145 25.134 0.840029 24.4098 0.625142 24.077L0.468886 24.1358L2.79358 29.4601C2.79358 29.4601 2.30518 29.6754 2.40285 30.0669C2.61774 30.8499 3.28196 31.8482 3.28196 33.0619C3.28196 33.5512 3.2233 33.6099 3.2233 33.8448C3.2233 34.0797 3.37961 34.1776 3.61403 34.1776H19.3204C19.5353 34.1776 19.711 34.0602 19.711 33.8448C19.711 33.6295 19.6524 33.5708 19.6524 33.0619C19.6524 31.8482 20.3167 30.8499 20.5315 30.0669C20.6488 29.6754 20.1408 29.4601 20.1408 29.4601L22.4655 24.1358H22.4265ZM4.45403 5.69627C4.51263 5.81372 4.66894 5.91163 4.78615 5.91163C5.00104 5.6963 5.23549 5.42221 5.23549 5.12859C4.96199 5.18731 4.45403 5.28518 4.45403 5.67668V5.69627ZM15.1203 3.42559L15.2766 3.54303C15.2766 3.54303 16.2729 3.09282 16.2729 2.38813C16.2729 2.38813 16.2728 1.99664 16.058 1.78131C15.9407 1.78131 15.9408 1.99666 15.9408 2.11411C15.9408 2.32943 15.7845 2.50557 15.4915 2.50557C15.2766 2.50557 14.8858 2.29025 14.8858 1.89876C14.8858 1.50726 15.0421 1.35067 15.0421 1.23322C15.0421 1.23322 15.0421 1.1745 14.9835 1.1745C14.1045 1.50727 14.0458 1.89879 14.0458 2.17283C14.0458 2.56433 14.2021 2.95581 15.1007 3.44518L15.1203 3.42559ZM3.00844 22.5306C5.60663 22.5306 5.548 19.5356 5.548 18.5373C5.548 14.0547 6.87641 12.9389 9.96298 11.51C12.2877 10.3942 14.378 9.96361 14.378 7.75166C14.378 6.96867 14.1631 6.14651 13.2644 6.14651C13.2644 6.14651 13.5966 6.47925 13.5966 7.02734C13.5966 7.24267 13.5379 7.47761 13.4402 7.75166C13.4402 7.53634 13.3817 7.26224 13.2254 7.02734C12.9519 7.47756 13.0105 8.14315 12.8347 8.4172C12.8347 8.4172 12.7174 8.69124 11.9555 9.08273C11.9555 9.08273 11.8384 9.20018 12.2291 9.20018C12.2291 9.20018 13.1667 9.20015 13.4988 8.80866C13.2254 9.59165 12.8932 9.86571 12.3853 9.86571C12.1118 9.86571 11.6626 9.80699 11.2719 9.80699C10.6077 9.80699 9.06438 10.1397 8.45879 11.1968C8.00948 11.9211 6.73967 12.5866 6.3099 12.5866C5.91919 12.5866 5.37219 11.7057 5.37219 11.3142C5.37219 10.864 6.15364 11.1576 6.75923 10.5312C7.75553 9.53293 8.14623 9.31762 9.20113 9.31762C9.20113 9.31762 9.80672 9.31762 9.25974 8.76953L7.54063 7.16438C7.32574 6.94906 7.14993 6.83164 6.93504 6.83164C6.81783 6.83164 6.60292 6.89037 6.11453 7.32101C5.11824 7.43846 4.72752 7.59502 4.45403 7.7712C4.29775 7.88864 4.18057 7.98655 4.06336 7.98655C3.90708 7.98655 3.67263 7.10567 3.67263 6.92949C3.67263 6.47927 4.16101 6.20521 4.16101 5.93116C4.16101 5.77456 4.00476 5.71587 4.00476 5.71587L3.28196 6.0486C3.28196 6.0486 2.89126 5.59839 3.34057 5.38307C3.34057 5.38307 4.45404 4.7763 6.54431 3.77798C6.66152 4.3848 6.81779 4.50224 7.32571 4.44352L7.11085 4.50224L6.99364 4.65881C7.14993 4.71754 7.48199 4.65882 7.81409 4.54137C8.08758 4.42392 8.41967 4.42394 8.47828 4.38479C8.53689 4.32607 8.6932 4.16944 8.6932 4.11072C8.57599 4.11072 8.2439 4.16944 8.02901 4.22816C8.36111 4.01284 8.51739 3.83667 8.51739 3.73879C8.51739 3.68007 8.45879 3.62135 8.45879 3.62135C8.3025 3.62135 8.18527 3.7388 8.00945 3.68007C7.89224 3.62135 7.7946 3.52351 7.7946 3.34733C7.7946 3.22988 7.91181 3.13198 8.28298 3.13198H8.55644C8.55644 2.91666 8.00946 2.79924 7.77504 2.79924C7.50155 2.79924 7.11082 2.91666 6.77873 3.07326C6.77873 3.07326 6.83733 2.62304 7.32571 2.40772C7.5992 2.29027 9.04484 2.13365 10.4123 2.13365C12.4049 2.13365 13.8895 3.85624 14.163 3.85624C14.2802 3.85624 14.3779 3.73882 14.2216 3.64094C13.4988 3.15157 13.0691 2.76003 13.0691 2.25109C13.0691 2.09449 13.0691 1.0375 15.3352 0.646002C16.3315 1.46814 16.6635 2.09452 16.6635 2.64261C16.6635 3.5822 15.6086 3.69963 15.511 4.09113C18.1092 4.24772 20.0432 7.69289 20.0432 9.41547C20.0432 12.5083 17.1129 13.8003 15.2961 14.1722C17.9529 12.1756 18.9492 10.1789 18.9492 8.80866C18.9492 6.53798 16.898 5.20693 16.4096 4.93289C17.5622 6.20525 17.8552 7.53633 17.8552 8.53464C17.8552 10.4725 16.644 11.4121 16.644 11.4121C16.8589 10.9619 16.9175 10.59 16.9175 10.2572C16.9175 9.98319 16.8589 9.76786 16.8589 9.76786C15.804 12.2539 13.3816 13.9764 13.2058 16.0905C13.0495 15.6011 12.9909 15.0922 12.9909 14.642C12.9909 12.8607 14.1044 11.7645 14.1044 11.7645C11.9556 13.2522 11.4477 14.9748 11.4477 16.3058C11.4477 17.6369 11.9947 18.6352 11.9947 18.6352C11.8774 18.1459 11.936 17.3041 12.0533 16.6386C12.2681 18.5178 13.2058 20.8472 15.804 22.3348C11.2718 22.3348 9.39648 16.9126 11.2719 13.4675C8.12669 14.2896 7.73599 17.5586 7.67739 19.4574C7.4625 18.459 7.40387 17.676 7.40387 17.0692C7.40387 13.6828 10.2169 12.8019 12.3267 11.8623C15.4133 10.4725 16.7027 9.37636 16.7027 7.37974C16.7027 5.26566 14.2216 3.95415 12.3853 4.32607L13.0496 4.99161C13.1668 5.10906 13.323 5.2069 13.323 5.2069C15.257 6.20522 15.5305 7.32099 15.5305 7.96696C15.5305 9.74826 13.5379 10.6879 12.1119 11.2947C7.46248 13.2913 6.64196 14.1722 6.64196 17.0497C6.64196 19.1638 7.2476 22.4719 5.04012 22.7459C5.1964 23.0199 5.97777 23.1374 5.97777 23.1374C5.31358 23.6855 4.59082 23.8617 3.77034 23.8617C2.98893 23.8617 1.44563 23.6464 0.996316 21.9825C1.44563 22.2566 2.0512 22.5893 2.98889 22.5893L3.00844 22.5306ZM6.54431 10.3355C6.32942 10.5508 6.095 10.5508 5.99733 10.5508C5.88012 10.2768 5.99733 9.88531 5.99733 9.88531C6.21222 9.88531 6.54431 10.0419 6.54431 10.3355ZM5.93872 9.61123C5.72384 9.944 5.548 10.3942 4.88381 10.3942C4.21961 10.3942 3.67261 9.90484 3.2233 9.90484C3.00841 9.90484 2.89124 9.96356 2.77403 9.96356C2.65682 9.96356 2.61771 9.90484 2.61771 9.84612C2.61771 9.68952 2.8326 9.51338 3.1647 9.51338C3.4968 9.51338 3.7703 9.66995 4.27822 9.7874C5.00102 10.0027 5.43084 9.39591 5.72387 9.18058C6.05596 8.90654 6.32942 8.84785 6.60292 8.84785C7.1499 8.84785 7.54063 9.12186 7.54063 9.12186C7.26713 9.12186 6.66156 9.39591 6.21225 9.66995C6.05596 9.61123 5.99733 9.55251 5.93872 9.61123ZM4.78615 7.94736C4.90337 7.88864 5.27453 7.82992 5.27453 7.82992C5.39175 8.04524 5.39174 8.43676 5.33314 8.76953C4.84476 8.76953 4.66894 8.28013 4.78615 7.94736ZM17.1715 2.40772C19.2227 2.85794 18.9492 4.189 19.3204 5.12859C18.4413 4.01282 17.2691 3.30815 17.2691 3.30815C17.3863 2.81878 17.1519 2.42732 17.1519 2.42732L17.1715 2.40772ZM19.7696 12.8802C19.7696 15.2096 16.7808 15.4837 16.7808 17.7544C16.7808 18.6352 17.0542 19.242 16.898 19.8097C16.898 19.8097 17.5036 19.1441 17.5622 18.6548C17.5622 20.3774 18.4413 22.374 20.7073 22.374C21.0394 22.374 21.5278 22.3153 21.9771 22.0412C21.9771 22.0412 21.8599 23.6464 20.0432 23.6464C17.7185 23.6464 15.6282 21.7084 15.6282 18.1067C15.6282 17.4411 15.7454 16.6582 16.1166 16.1101C16.1166 16.1101 15.0031 16.7169 14.9054 18.6548C14.9054 18.6548 14.4561 17.9893 14.4561 17.1671C14.4561 14.4071 17.8356 15.3858 19.7696 12.8998V12.8802ZM19.5548 24.6251C21.606 24.6251 22.6413 23.5681 22.6413 21.9629C22.6413 21.4148 22.4851 21.0234 22.4851 21.0234C21.9381 21.4736 21.2739 21.5715 20.8832 21.5715C20.0627 21.5715 18.9492 21.082 18.9492 19.751C18.9492 18.0284 20.766 17.1476 20.766 15.2097C20.766 14.6616 20.5511 14.4266 20.5511 14.4266C21.3716 13.3109 21.6646 12.2734 21.6646 11.4317C21.6646 9.88526 20.8441 8.88697 20.8441 8.88697L21.7232 9.33722C21.3325 7.84953 20.512 6.85118 20.512 6.85118C20.512 6.85118 20.9613 7.0665 21.1762 6.96862C20.7269 6.7533 20.0627 5.91161 20.0627 4.42392C20.0627 2.93624 19.7306 2.09452 16.8589 1.60515C16.5268 0.939604 15.7454 0.215323 15.3742 0C14.71 0.332772 13.7137 0.724286 13.3816 0.998334C13.3816 0.998334 12.5612 1.05706 12.2291 1.05706C11.7407 1.05706 11.35 0.900484 11.1155 0.900484C10.4514 0.900484 10.002 1.56602 10.002 1.56602C10.002 1.56602 8.51737 1.62471 7.46247 1.84004C6.91548 1.95748 6.5834 2.38815 6.19269 3.32774L3.47727 4.81544C2.98889 5.08949 2.65682 5.26563 2.65682 5.69627C2.65682 5.9116 2.8131 6.30311 3.1452 6.81205C3.4187 8.47591 3.69215 8.74994 4.08285 8.74994C4.20007 8.74994 4.41498 8.69121 4.41498 8.69121C4.53219 8.80866 4.80571 9.2393 4.86431 9.41547C4.415 9.63079 3.868 9.14146 3.20381 9.14146C2.8131 9.14146 2.20749 9.35674 2.20749 10.0223C2.20749 10.2376 2.32473 10.2964 2.42241 10.2964C2.57869 10.2964 2.7545 10.2376 3.1452 10.2376C3.63358 10.2376 4.0243 10.6879 4.80571 10.6879C5.0792 10.6879 5.25502 10.6292 5.35269 10.6879C4.96199 10.9619 4.7471 11.1381 4.86431 11.51C5.02059 12.2343 5.68478 13.0564 6.01688 13.0564C6.29038 13.0564 6.79828 12.8998 6.79828 12.8998L6.46615 13.1739C4.25867 15.053 4.7471 17.1671 4.7471 19.2616C4.7471 20.8667 4.29779 21.8651 3.028 21.8651C2.20752 21.8651 1.0354 21.3757 0.156315 20.2599C0.0391038 20.5927 0 21.0821 0 21.5323C0 23.4702 1.7777 24.7426 3.53587 24.7426C5.07915 24.7426 6.19269 24.2924 7.28666 23.4115C10.4318 23.3528 11.4281 21.2583 11.4281 21.2583C12.9128 23.4115 15.6868 23.2549 16.1361 23.2549C17.0738 24.2532 18.5194 24.6447 19.5548 24.6447V24.6251ZM10.3732 19.9076C10.3732 21.6302 8.92759 22.3936 7.44292 22.3936C9.3769 20.2795 7.89223 17.2454 9.76761 15.2488C9.61133 17.0301 10.3732 18.6744 10.3732 19.9076ZM8.32202 5.73546H8.38063C8.65412 6.7925 9.86531 6.89032 10.1583 8.12353L10.0997 8.18231C9.49415 7.30144 8.65412 7.18395 8.32202 6.73373C8.16574 6.51841 8.16574 6.2444 8.32202 5.73546ZM13.9677 31.4371C13.9677 31.4371 13.6356 31.8874 13.577 31.8874C13.5184 31.8874 13.1863 31.4958 13.1863 31.4371C13.1863 31.3197 13.5184 30.9869 13.577 30.9869C13.6356 30.9869 13.9677 31.3197 13.9677 31.4371ZM18.2264 31.5546C18.2264 31.5546 17.8943 32.0048 17.8357 32.0048C17.7771 32.0048 17.445 31.6133 17.445 31.5546C17.445 31.4371 17.7771 31.1044 17.8357 31.1044C17.8943 31.1044 18.2264 31.4371 18.2264 31.5546ZM16.7808 32.3376C16.898 32.3376 16.9957 32.2788 16.9957 32.1222V30.9086C16.9957 30.752 16.8784 30.6933 16.7808 30.6933C16.1166 30.6346 15.0617 30.5758 14.6319 30.5758C14.4561 30.5758 14.3584 30.6933 14.3584 30.8499V32.0635C14.3584 32.2201 14.4756 32.3376 14.6319 32.3376H16.7808ZM12.4635 32.3963C12.6198 32.3963 12.737 32.2788 12.737 32.1222V30.7912C12.737 30.6346 12.6198 30.5171 12.4635 30.5171H10.3537C10.1974 30.5171 10.0802 30.6346 10.0802 30.7912V32.1222C10.0802 32.2788 10.1974 32.3963 10.3537 32.3963H12.4635ZM8.86901 31.4567C8.86901 31.3393 9.20113 31.0065 9.25974 31.0065C9.31834 31.0065 9.65041 31.3393 9.65041 31.4567C9.65041 31.5154 9.31834 31.907 9.25974 31.907C9.20113 31.907 8.86901 31.5154 8.86901 31.4567ZM4.61034 31.5742C4.61034 31.4567 4.94241 31.1239 5.00101 31.1239C5.05962 31.1239 5.39174 31.4567 5.39174 31.5742C5.39174 31.6329 5.05962 32.0244 5.00101 32.0244C4.94241 32.0244 4.61034 31.6329 4.61034 31.5742ZM6.05593 32.3571H8.20482C8.3611 32.3571 8.47828 32.2397 8.47828 32.0831V30.8695C8.47828 30.7129 8.3611 30.5954 8.20482 30.5954C7.75551 30.5954 6.72013 30.6541 6.05593 30.7129C5.93872 30.7129 5.84107 30.7716 5.84107 30.9282V32.1418C5.84107 32.2984 5.95826 32.3571 6.05593 32.3571ZM10.8616 31.4763C10.8616 31.3197 11.3109 30.8695 11.4086 30.8695C11.4672 30.8695 11.8969 31.3197 11.8969 31.4763C11.8969 31.535 11.4476 32.0244 11.4086 32.0244C11.2914 32.0244 10.8616 31.535 10.8616 31.4763ZM15.1789 31.4763C15.1789 31.3197 15.6282 30.8695 15.7259 30.8695C15.7845 30.8695 16.2143 31.3197 16.2143 31.4763C16.2143 31.535 15.765 32.0244 15.7259 32.0244C15.6087 32.0244 15.1789 31.535 15.1789 31.4763ZM6.60292 31.4763C6.60292 31.3197 7.05222 30.8695 7.1499 30.8695C7.20851 30.8695 7.63828 31.3197 7.63828 31.4763C7.63828 31.535 7.18897 32.0244 7.1499 32.0244C7.03269 32.0244 6.60292 31.535 6.60292 31.4763Z" fill="white"/>
</svg>
